<svg width="54" height="78" viewBox="0 0 54 78" fill="none" xmlns="http://www.w3.org/2000/svg">
<path d="M52.8655 38.7228C52.8655 42.0641 50.1564 44.7732 46.8151 44.7732C43.4737 44.7732 40.7646 42.0641 40.7646 38.7228C40.7646 35.3815 43.4737 32.6724 46.8151 32.6724C50.1564 32.6724 52.8655 35.3815 52.8655 38.7228Z" fill="#89CEEA"/>
<path d="M46.8153 32.6724C46.0129 32.6724 45.2471 32.8301 44.5464 33.1137C46.7633 34.0118 48.3279 36.1839 48.3279 38.7228C48.3279 41.2617 46.7633 43.4337 44.5464 44.3318C45.2471 44.6154 46.0129 44.7732 46.8153 44.7732C50.1566 44.7732 52.8657 42.0641 52.8657 38.7228C52.8657 35.3815 50.1566 32.6724 46.8153 32.6724V32.6724Z" fill="#78C0DE"/>
<path d="M37.4368 60.0581V76.3109H1.13428V60.0581C1.13428 54.452 4.95361 49.7423 10.1254 48.4051C10.5745 48.2881 11.0342 48.1977 11.5015 48.1339C12.0339 48.0613 12.5757 48.0234 13.1276 48.0234H25.4435C25.9954 48.0234 26.5372 48.0613 27.0695 48.1339C27.5411 48.1977 28.0025 48.2899 28.4551 48.4081C33.6222 49.7464 37.4368 54.4556 37.4368 60.0581V60.0581Z" fill="#E8E1D5"/>
<path d="M28.4552 48.4081C28.0026 48.2899 27.5411 48.1977 27.0696 48.1339C26.5373 48.0613 25.9954 48.0234 25.4436 48.0234H20.9058C21.4576 48.0234 21.9994 48.0613 22.5318 48.1339C23.0033 48.1977 23.4648 48.2899 23.9174 48.4081C29.0845 49.7464 32.8991 54.4556 32.8991 60.0581V76.3109H37.4369V60.0581C37.4369 54.4556 33.6223 49.7464 28.4552 48.4081Z" fill="#D6CFC4"/>
<path d="M28.4552 48.4081L19.2903 76.3109L10.1255 48.4051C10.5745 48.2881 11.0342 48.1977 11.5016 48.1339C12.034 48.0613 12.5758 48.0234 13.1277 48.0234H25.4436C25.9954 48.0234 26.5373 48.0613 27.0696 48.1339C27.5411 48.1977 28.0026 48.2899 28.4552 48.4081V48.4081Z" fill="#FF573D"/>
<path d="M26.1301 48.0228C26.676 48.0228 27.0754 48.5374 26.9407 49.0668C26.2689 51.7068 23.0966 53.7068 19.2855 53.7068C15.4745 53.7068 12.3021 51.7068 11.6303 49.0668C11.4956 48.5374 11.895 48.0228 12.441 48.0228H14.7897V39.187H23.7814V48.0228H26.1301Z" fill="#EBA28C"/>
<path d="M19.2856 76.311C19.3317 75.9187 15.4202 51.1864 14.7631 47.035C14.7111 46.7088 14.4068 46.4849 14.0795 46.5322L7.79746 47.4338C7.51503 47.4746 7.29936 47.7068 7.27986 47.9916L6.71973 56.2016L9.36029 57.8082L8.62407 61.6476L19.2856 76.311Z" fill="#C4BEB4"/>
<path d="M19.2865 76.311C19.2404 75.9187 23.1514 51.1864 23.809 47.035C23.8604 46.7088 24.1653 46.4849 24.4926 46.5322L30.7747 47.4338C31.0571 47.4746 31.2728 47.7068 31.2922 47.9916L31.8524 56.2016L29.2118 57.8082L29.9474 61.6476L19.2865 76.311Z" fill="#C4BEB4"/>
<path d="M8.24363 24.3531C8.24363 26.6084 6.60458 28.4371 4.58324 28.4371C2.5619 28.4371 1.28564 26.3419 1.28564 24.0866C1.28564 21.4248 2.5619 20.269 4.58324 20.269C6.60458 20.269 8.24363 22.0978 8.24363 24.3531Z" fill="#EBA28C"/>
<path d="M30.3276 24.3531C30.3276 26.6084 31.9667 28.4371 33.988 28.4371C36.0094 28.4371 37.2856 26.3419 37.2856 24.0866C37.2856 21.4248 36.0094 20.269 33.988 20.269C31.9667 20.269 30.3276 22.0978 30.3276 24.3531Z" fill="#EBA28C"/>
<path d="M5.97461 29.6079V19.7595C5.97461 12.8281 11.5937 7.20898 18.5251 7.20898H20.046C26.9774 7.20898 32.5965 12.8281 32.5965 19.7595V29.6079C32.5965 36.9529 26.6423 42.9065 19.2979 42.9065H19.2731C11.9287 42.9065 5.97461 36.9529 5.97461 29.6079V29.6079Z" fill="#FCC19C"/>
<path d="M20.0459 7.20898H18.5251C18.014 7.20898 17.5112 7.24325 17.0166 7.30234C23.236 8.04801 28.0586 13.3392 28.0586 19.7595V29.6079C28.0586 36.1836 23.2862 41.6432 17.0166 42.715C17.7499 42.8409 18.5038 42.9065 19.2731 42.9065H19.2979C26.6423 42.9065 32.5964 36.9529 32.5964 29.6079V19.7595C32.5964 12.8281 26.9773 7.20898 20.0459 7.20898V7.20898Z" fill="#EBA28C"/>
<path d="M5.97471 24.2387C5.97471 24.335 6.06216 24.4065 6.15669 24.387C6.76174 24.2594 8.67908 23.7365 8.84866 22.2097C9.05014 20.3946 12.489 15.2517 17.9296 14.7477C21.8913 14.3802 23.8164 12.3021 24.5703 11.1996C24.721 10.9792 25.0601 11.043 25.1163 11.3036C25.4164 12.7033 26.2336 15.624 28.0629 17.2689C30.4807 19.4433 29.7533 24.2269 32.4305 24.4154C32.5197 24.4213 32.5966 24.3534 32.5966 24.2641V20.485C32.5966 20.0844 32.9215 19.7594 33.3221 19.7594H33.3883C33.7245 19.7594 34.017 19.5302 34.0944 19.2028C34.4229 17.8167 35.1243 14.1108 34.0702 11.2179C32.7478 7.58767 29.0437 6.07506 29.0437 6.07506C29.0437 6.07506 27.7869 1.13428 20.0827 1.13428C12.3779 1.13428 9.35621 4.3787 9.35621 4.3787C9.35621 4.3787 3.50432 9.3957 4.00832 13.7858C4.34689 16.7366 4.47628 18.661 4.52414 19.6058C4.54423 19.9916 4.86271 20.2941 5.24913 20.2941C5.64973 20.2941 5.97471 20.6191 5.97471 21.0197V24.2387Z" fill="#633327"/>
<path d="M34.0702 11.2185C32.7478 7.58826 29.0437 6.07506 29.0437 6.07506C29.0437 6.07506 27.7869 1.13428 20.0827 1.13428C19.1787 1.13428 18.342 1.18036 17.5645 1.25895C23.4754 2.02648 24.5059 6.07506 24.5059 6.07506C24.5059 6.07506 28.21 7.58826 29.5324 11.2185C30.5864 14.1108 29.8845 17.8167 29.556 19.2034C29.5359 19.2891 29.4999 19.3683 29.4526 19.438C30.3341 21.6756 30.47 24.2777 32.4305 24.4154C32.5197 24.4213 32.5966 24.3534 32.5966 24.2641V20.485C32.5966 20.0844 32.9215 19.7594 33.3221 19.7594H33.3883C33.7239 19.7594 34.0164 19.5302 34.0938 19.2028C34.4229 17.8167 35.1243 14.1108 34.0702 11.2185Z" fill="#572D22"/>
<path d="M13.3917 14.7481C9.35494 15.1221 6.42249 18.0492 5.09424 20.2768C5.14387 20.2874 5.19587 20.2945 5.24904 20.2945C5.64965 20.2945 5.97462 20.6195 5.97462 21.0201V24.2391C5.97462 24.3354 6.06207 24.4069 6.15661 24.3874C6.76165 24.2598 8.67899 23.7369 8.84857 22.2107C9.05005 20.3955 12.4889 15.2527 17.9295 14.7481C19.2991 14.621 20.4253 14.2896 21.3435 13.8647C18.8572 14.2187 17.3534 14.3812 13.3917 14.7481Z" fill="#572D22"/>
<path d="M17.0889 26.199C17.0889 28.2871 15.3961 29.9805 13.3074 29.9805C11.2187 29.9805 9.52588 28.2871 9.52588 26.199C9.52588 24.1103 11.2187 22.4175 13.3074 22.4175C15.3961 22.4175 17.0889 24.1103 17.0889 26.199Z" fill="#CEE8F2"/>
<path d="M29.0454 26.199C29.0454 28.2871 27.3526 29.9805 25.2639 29.9805C23.1752 29.9805 21.4824 28.2871 21.4824 26.199C21.4824 24.1103 23.1752 22.4175 25.2639 22.4175C27.3526 22.4175 29.0454 24.1103 29.0454 26.199Z" fill="#CEE8F2"/>
<path d="M54 38.7227C54 34.761 50.7769 31.5378 46.8151 31.5378C42.8534 31.5378 39.6303 34.761 39.6303 38.7227C39.6303 42.2986 42.256 45.2718 45.6807 45.8172V47.2707C45.6807 51.8351 42.3984 55.6456 38.0704 56.4704C37.1995 53.3985 35.2301 50.7012 32.4944 48.9505L32.4235 47.9141C32.368 47.1011 31.7423 46.4269 30.9357 46.3105L28.941 46.0246C32.8726 43.9684 35.5634 39.8518 35.5634 35.1161V29.24C37.2662 28.4872 38.4202 26.5196 38.4202 24.0865C38.4202 21.4418 37.2786 19.7454 35.2425 19.2709C35.6177 17.6136 36.244 13.8699 35.1362 10.8299C33.9426 7.55475 31.0935 5.82885 29.9519 5.24921C29.3487 3.79865 27.0993 0 20.0828 0C12.4317 0 9.04963 3.08193 8.57931 3.55108C8.00322 4.05331 2.33154 9.13176 2.88163 13.9154C3.17647 16.4833 3.31001 18.2629 3.36909 19.2615C1.30758 19.7224 0.151261 21.424 0.151261 24.0865C0.151261 26.5368 1.32117 28.5138 3.04235 29.2553V35.1161C3.04235 39.8489 5.73017 43.963 9.65763 46.0204L7.63629 46.3105C6.82918 46.4269 6.20345 47.1011 6.14791 47.9141L6.0776 48.9505C2.3144 51.3583 0 55.5575 0 60.0581V67.7647C0 68.391 0.508141 68.8992 1.13445 68.8992C1.76077 68.8992 2.26891 68.391 2.26891 67.7647V60.0581C2.26891 56.9401 3.61016 53.997 5.87257 51.9515L5.58778 56.1241C5.55882 56.5472 5.76799 56.9508 6.1296 57.1706L8.09776 58.3676L7.50985 61.4342C7.45076 61.7421 7.52226 62.0611 7.7066 62.3146L17.0582 75.1765H2.26891V72.5861C2.26891 71.9598 1.76077 71.4517 1.13445 71.4517C0.508141 71.4517 0 71.9598 0 72.5861V76.3109C0 76.9372 0.508141 77.4454 1.13445 77.4454H37.437C38.0633 77.4454 38.5714 76.9372 38.5714 76.3109V60.0581C38.5714 59.6008 38.5472 59.147 38.4999 58.6979C43.8744 57.6716 47.9496 52.9394 47.9496 47.2707V45.8172C51.3742 45.2718 54 42.2986 54 38.7227V38.7227ZM35.7501 56.6382H32.8968C32.9636 56.4781 32.9967 56.3038 32.9842 56.1241L32.6994 51.9521C34.1069 53.2248 35.1568 54.8443 35.7501 56.6382ZM30.6734 55.5906L29.0113 56.6022C27.0319 56.4349 25.2256 55.6509 23.7875 54.442C23.8489 54.0502 24.5574 49.562 24.8475 47.7286L30.1895 48.4961L30.6734 55.5906ZM19.2739 44.041H19.2975C20.4503 44.041 21.5718 43.9045 22.6465 43.6481V45.1513H15.9249V43.6481C16.9997 43.9045 18.1211 44.041 19.2739 44.041ZM15.9728 47.4202H18.1725C18.1962 49.2719 18.6547 51.0203 19.45 52.5683C19.395 52.5695 19.3407 52.5719 19.2857 52.5719C18.4071 52.5719 17.5362 52.4484 16.7308 52.2156C16.4933 50.713 16.241 49.1171 15.9728 47.4202ZM21.8436 52.1991C20.9785 50.8058 20.4692 49.1709 20.4414 47.4202H22.5993C22.3316 49.1106 22.0799 50.7012 21.8436 52.1991ZM19.2857 54.8408C19.8293 54.8408 20.3629 54.8042 20.8852 54.7327C21.0382 54.9152 21.1972 55.0913 21.3602 55.2639C20.4225 61.2186 19.7572 65.4834 19.2863 68.5429C18.7988 65.3776 18.1034 60.9214 17.1131 54.6387C17.8162 54.7717 18.5418 54.8408 19.2857 54.8408ZM24.9154 45.0124V42.903C29.0367 41.1547 32.183 37.5445 33.2944 33.1337V35.1161C33.2944 40.0852 29.6636 44.2201 24.9154 45.0124ZM36.1513 24.0865C36.1513 25.6676 35.3424 27.3025 33.9881 27.3025C33.9019 27.3025 33.8162 27.2966 33.7311 27.2866V21.4193C33.8162 21.4093 33.9019 21.4034 33.9881 21.4034C35.0576 21.4034 36.1513 21.7224 36.1513 24.0865ZM10.0949 5.24035C10.1268 5.21317 10.1575 5.18363 10.1864 5.15231C10.213 5.12336 12.9546 2.26891 20.0828 2.26891C26.7323 2.26891 27.9005 6.19932 27.9442 6.3553C28.0263 6.71159 28.2739 6.98398 28.6113 7.12461C28.6438 7.13761 31.877 8.51254 33.0043 11.6069C33.8965 14.0554 33.3447 17.3223 33.0581 18.644C32.157 18.7728 31.4622 19.5492 31.4622 20.4852V21.9464C31.3493 21.6297 31.2329 21.2545 31.1029 20.8184C30.6563 19.3194 30.1493 17.6195 28.821 16.4254C27.2038 14.9707 26.467 12.193 26.2254 11.0657C26.1048 10.5043 25.6629 10.0695 25.0998 9.95838C24.5349 9.8473 23.9594 10.083 23.6339 10.5593C22.9467 11.5643 21.2787 13.2979 17.8251 13.6182C17.7767 13.6229 17.7282 13.6276 17.6803 13.6329C17.057 13.6997 16.6062 14.2587 16.6729 14.8814C16.7397 15.5048 17.2998 15.9544 17.9214 15.8889C17.9592 15.8847 17.9965 15.8812 18.0343 15.8776C21.1853 15.5852 23.1996 14.313 24.4209 13.1254C24.9273 14.7597 25.8118 16.7698 27.3043 18.1123C28.1575 18.8798 28.5492 20.1951 28.9286 21.4672C29.3735 22.9585 29.9124 24.7612 31.4622 25.355V29.6075C31.4622 36.3155 26.0056 41.7721 19.2975 41.7721H19.2739C12.5658 41.7721 7.10924 36.3155 7.10924 29.6075V25.306C7.72788 25.1057 8.26142 24.8304 8.69689 24.4936C8.49954 25.0253 8.39141 25.5997 8.39141 26.1988C8.39141 28.9091 10.5965 31.1148 13.3074 31.1148C15.6277 31.1148 17.5758 29.4982 18.0898 27.3332H20.4816C20.9951 29.4982 22.9437 31.1148 25.2641 31.1148C27.9743 31.1148 30.18 28.9091 30.18 26.1988C30.18 23.4879 27.9743 21.2828 25.2641 21.2828C22.9437 21.2828 20.9951 22.8988 20.4816 25.0643H18.0898C17.5758 22.8988 15.6277 21.2828 13.3074 21.2828C11.9986 21.2828 10.8086 21.7981 9.92647 22.6347C9.94774 22.5366 9.96488 22.4368 9.9761 22.3352C10.073 21.4648 11.5141 18.998 13.9236 17.3849C14.4442 17.0363 14.5836 16.3314 14.2356 15.8109C13.887 15.2903 13.1821 15.1509 12.6616 15.4995C9.8532 17.379 7.91045 20.3812 7.72138 22.0846C7.68711 22.3895 7.43422 22.6394 7.10924 22.8327V21.0193C7.10924 21.0175 7.10924 21.0163 7.10924 21.0152C7.10747 20.4828 6.88117 20.0036 6.52016 19.665C6.50775 19.6526 6.49475 19.6402 6.48175 19.6278C6.4717 19.619 6.46107 19.6107 6.45102 19.6024C6.43448 19.5882 6.41735 19.5741 6.39962 19.5611C6.18041 19.3873 5.92161 19.2609 5.63859 19.2006C5.5795 18.1855 5.44301 16.335 5.13518 13.6566C4.77948 10.5563 8.59467 6.52961 10.0949 5.24035ZM10.6603 26.1988C10.6603 24.7394 11.848 23.5517 13.3074 23.5517C14.7668 23.5517 15.9544 24.7394 15.9544 26.1988C15.9544 27.6582 14.7668 28.8459 13.3074 28.8459C11.848 28.8459 10.6603 27.6582 10.6603 26.1988ZM22.617 26.1988C22.617 24.7394 23.8046 23.5517 25.2641 23.5517C26.7235 23.5517 27.9111 24.7394 27.9111 26.1988C27.9111 27.6582 26.7235 28.8459 25.2641 28.8459C23.8046 28.8459 22.617 27.6582 22.617 26.1988ZM4.58331 21.4034C4.66958 21.4034 4.75525 21.4105 4.84034 21.4205V27.2866C4.75525 27.2966 4.66958 27.3025 4.58331 27.3025C3.22906 27.3025 2.42017 25.6676 2.42017 24.0865C2.42017 21.7224 3.51385 21.4034 4.58331 21.4034ZM5.31125 35.1161V33.2696C6.4528 37.6184 9.57727 41.173 13.656 42.903V45.0059C8.92496 44.1994 5.31125 40.0734 5.31125 35.1161V35.1161ZM9.94951 56.8385L7.89804 55.5906L8.30042 49.7021C8.30101 49.695 8.3016 49.6885 8.3016 49.6814L8.38255 48.4955L13.7245 47.7286C14.0152 49.5668 16.8525 67.6229 17.5108 71.9409L9.83075 61.3781L10.4742 58.0214C10.5634 57.5564 10.3543 57.0849 9.94951 56.8385V56.8385ZM36.3025 75.1765H21.5139L26.4865 68.3367C26.8552 67.8303 26.743 67.1207 26.236 66.752C25.7296 66.3839 25.02 66.4961 24.6513 67.0025L21.0613 71.9403C21.6072 68.3579 22.4504 62.9474 23.3892 56.972C24.8191 57.921 26.47 58.5609 28.2467 58.7996L28.7407 61.3781L27.5093 63.0715C27.1412 63.5785 27.2535 64.2881 27.7598 64.6562C28.2668 65.0249 28.9764 64.9126 29.3445 64.4063L30.8648 62.3152C31.0498 62.0611 31.1207 61.7426 31.0616 61.4342L30.5777 58.9071H36.2405C36.2807 59.287 36.3019 59.6711 36.3019 60.0581V75.1765H36.3025ZM46.8151 43.6387C44.1043 43.6387 41.8992 41.4336 41.8992 38.7227C41.8992 36.0118 44.1043 33.8067 46.8151 33.8067C49.526 33.8067 51.7311 36.0118 51.7311 38.7227C51.7311 41.4336 49.526 43.6387 46.8151 43.6387Z" fill="black"/>
</svg>
