<svg width="21" height="22" viewBox="0 0 21 22" fill="none" xmlns="http://www.w3.org/2000/svg">
<path d="M20.4589 6.60919C19.7393 5.88948 18.5682 5.88952 17.8483 6.60935C17.6269 6.83098 16.2132 8.24583 15.9972 8.462V3.58609C15.9972 3.09304 15.8052 2.62953 15.4566 2.28092L13.7163 0.540624C13.3677 0.191967 12.9042 0 12.4111 0H1.84583C0.828041 0 0 0.828041 0 1.84583V19.1556C0 20.1734 0.828041 21.0015 1.84583 21.0015H14.1514C15.1692 21.0015 15.9972 20.1734 15.9972 19.1556V13.6851L20.4589 9.21961C21.1803 8.49826 21.1804 7.33062 20.4589 6.60919ZM12.3056 1.23056C12.4218 1.23056 12.6458 1.21042 12.8462 1.41075L14.5865 3.15104C14.7817 3.34633 14.7667 3.56033 14.7667 3.69167H12.3056V1.23056ZM14.7667 19.1556C14.7667 19.4949 14.4907 19.7709 14.1514 19.7709H1.84583C1.50657 19.7709 1.23056 19.4949 1.23056 19.1556V1.84583C1.23056 1.50657 1.50657 1.23056 1.84583 1.23056H11.075V4.30694C11.075 4.64674 11.3505 4.92222 11.6903 4.92222H14.7667V9.69362C14.7667 9.69362 12.9514 11.5104 12.9514 11.5105L12.0816 12.3802C12.0141 12.4477 11.9632 12.5301 11.933 12.6207L11.0628 15.2311C10.9891 15.4522 11.0467 15.696 11.2115 15.8608C11.3765 16.0258 11.6203 16.083 11.8411 16.0094L14.4515 15.1393C14.5421 15.1091 14.6245 15.0582 14.692 14.9906L14.7667 14.916V19.1556ZM13.3868 12.8153L14.2569 13.6854L13.9246 14.0178L12.6194 14.4528L13.0544 13.1476L13.3868 12.8153ZM15.1269 12.8151L14.2568 11.945C14.7201 11.4812 16.778 9.42163 17.2144 8.98482L18.0845 9.85495L15.1269 12.8151ZM19.5886 8.34965L18.9543 8.98445L18.0842 8.11432L18.7187 7.47932C18.9587 7.2394 19.349 7.23944 19.5888 7.47932C19.8287 7.71928 19.83 8.10825 19.5886 8.34965Z" fill="white"/>
<path d="M11.6901 6.15283H3.07622C2.73642 6.15283 2.46094 6.42831 2.46094 6.76811C2.46094 7.10791 2.73642 7.38339 3.07622 7.38339H11.6901C12.0299 7.38339 12.3054 7.10791 12.3054 6.76811C12.3054 6.42831 12.0299 6.15283 11.6901 6.15283Z" fill="white"/>
<path d="M9.22899 8.61377H3.07622C2.73642 8.61377 2.46094 8.88925 2.46094 9.22905C2.46094 9.56884 2.73642 9.84433 3.07622 9.84433H9.22899C9.56879 9.84433 9.84427 9.56884 9.84427 9.22905C9.84427 8.88925 9.56879 8.61377 9.22899 8.61377Z" fill="white"/>
<path d="M9.22899 11.0752H3.07622C2.73642 11.0752 2.46094 11.3507 2.46094 11.6905C2.46094 12.0303 2.73642 12.3058 3.07622 12.3058H9.22899C9.56879 12.3058 9.84427 12.0303 9.84427 11.6905C9.84427 11.3507 9.56879 11.0752 9.22899 11.0752Z" fill="white"/>
<path d="M9.22899 13.5361H3.07622C2.73642 13.5361 2.46094 13.8116 2.46094 14.1514C2.46094 14.4912 2.73642 14.7667 3.07622 14.7667H9.22899C9.56879 14.7667 9.84427 14.4912 9.84427 14.1514C9.84427 13.8116 9.56879 13.5361 9.22899 13.5361Z" fill="white"/>
<path d="M11.6902 17.3096H7.99858C7.65878 17.3096 7.3833 17.5851 7.3833 17.9248C7.3833 18.2646 7.65878 18.5401 7.99858 18.5401H11.6902C12.03 18.5401 12.3055 18.2646 12.3055 17.9248C12.3055 17.5851 12.03 17.3096 11.6902 17.3096Z" fill="white"/>
</svg>
