<svg width="62" height="77" viewBox="0 0 62 77" fill="none" xmlns="http://www.w3.org/2000/svg">
<path d="M52.4453 67.7986V56.2856H60.1206V70.357C60.1206 71.7141 59.5815 73.0156 58.6219 73.9752C57.6623 74.9348 56.3608 75.4739 55.0037 75.4739H52.4453V67.7986Z" fill="#F6BB92"/>
<path d="M56.283 44.7725L57.3629 42.2141L58.3207 39.9449C58.8338 38.7247 58.9718 37.3794 58.7171 36.0805C58.4624 34.7815 57.8266 33.5879 56.8907 32.6519C55.6415 31.4025 54.9398 29.708 54.9399 27.9412V21.7466H26.861V27.9417C26.8611 29.7085 26.1594 31.4029 24.9102 32.6524C23.9743 33.5883 23.3384 34.7818 23.0836 36.0806C22.8288 37.3795 22.9667 38.7247 23.4796 39.9449L24.4934 42.3564L56.283 44.7725Z" fill="#834B10"/>
<path d="M60.1205 49.9955C60.1205 48.1786 59.476 46.4207 58.3016 45.0344C57.1272 43.648 55.4991 42.7233 53.707 42.4246L52.4452 42.2143L45.8388 41.1133L40.9322 46.052L35.974 41.0752L26.8608 42.2143V75.474H52.4452V65.2403C53.6023 64.0826 54.3329 62.567 54.5176 60.9407C54.7024 59.3143 54.3304 57.6734 53.4625 56.2857H60.1205V49.9955Z" fill="#85BC94"/>
<path d="M55.0036 23.026H26.8608V15.3507C26.8608 11.6187 28.3434 8.03961 30.9823 5.40071C33.6212 2.76181 37.2003 1.2793 40.9322 1.2793C44.6642 1.2793 48.2433 2.76181 50.8822 5.40071C53.5211 8.03961 55.0036 11.6187 55.0036 15.3507V23.026Z" fill="#834B10"/>
<path d="M51.166 19.1885H49.8868V11.5132H31.9777V19.1885H30.6985C29.6807 19.1885 28.7046 19.5928 27.9849 20.3125C27.2652 21.0322 26.8608 22.0083 26.8608 23.0261C26.8608 24.044 27.2652 25.0201 27.9849 25.7398C28.7046 26.4595 29.6807 26.8638 30.6985 26.8638H31.9777V28.143C31.9777 30.5179 32.9211 32.7955 34.6004 34.4748C36.2797 36.1541 38.5573 37.0975 40.9322 37.0975C43.3071 37.0975 45.5847 36.1541 47.264 34.4748C48.9433 32.7955 49.8868 30.5179 49.8868 28.143V26.8638H51.166C52.1838 26.8638 53.1599 26.4595 53.8796 25.7398C54.5993 25.0201 55.0036 24.044 55.0036 23.0261C55.0036 22.0083 54.5993 21.0322 53.8796 20.3125C53.1599 19.5928 52.1838 19.1885 51.166 19.1885Z" fill="#F6BB92"/>
<path d="M39.6533 50.9368V75.4738H11.0308C11.985 73.9884 13.0957 72.6097 14.3439 71.3611L14.4383 71.2668C16.7255 68.9834 18.5552 66.2838 19.8286 63.3133C20.3307 62.1428 20.8312 60.9723 21.1957 60.1232C21.5267 59.3509 21.7442 58.844 21.7442 58.844H18.0633C16.9224 58.843 15.8146 58.4612 14.9154 57.759C14.0163 57.0569 13.3773 56.0746 13.0999 54.968L12.4699 52.4479L12.3052 51.7891C12.2109 51.412 12.2038 51.0183 12.2845 50.638C12.3651 50.2577 12.5314 49.9007 12.7706 49.5943C13.0098 49.2879 13.3157 49.04 13.6651 48.8695C14.0145 48.699 14.3981 48.6103 14.7869 48.6103H19.1858C20.0106 46.1334 21.6946 44.0336 23.9333 42.6907L24.4929 42.3565C25.9317 41.4937 27.5647 41.0075 29.2411 40.9429C30.9174 40.8784 32.583 41.2375 34.0839 41.9871L34.1398 42.0159C35.7965 42.8443 37.1898 44.1177 38.1636 45.6933C39.1374 47.2689 39.6532 49.0846 39.6533 50.9368Z" fill="#BD9070"/>
<path d="M39.6533 51.1688V54.7986C39.6533 55.604 39.3999 56.3891 38.9289 57.0425C38.4579 57.6959 37.7933 58.1845 37.0292 58.4392C36.2415 58.7018 35.3899 58.7018 34.6022 58.4392C33.8381 58.1845 33.1734 57.6959 32.7025 57.0425C32.2315 56.3891 31.978 55.604 31.978 54.7986V48.6104H37.0949L39.6533 51.1688Z" fill="#9E785D"/>
<path d="M27.7659 57.1908L25.2075 59.7493C24.9673 59.989 24.6418 60.1236 24.3025 60.1234H21.1956C21.5266 59.3511 21.744 58.8442 21.744 58.8442H18.0631C16.8173 58.8454 15.6143 58.3903 14.6812 57.565H23.7732L25.9559 55.3807C26.1959 55.1407 26.5214 55.0059 26.8609 55.0059C27.2004 55.0059 27.5259 55.1407 27.7659 55.3807C28.006 55.6208 28.1408 55.9463 28.1408 56.2858C28.1408 56.6252 28.006 56.9508 27.7659 57.1908V57.1908Z" fill="#9E785D"/>
<path d="M16.6275 48.6104V50.1564C16.6275 50.7642 16.3861 51.3471 15.9563 51.7768C15.5266 52.2066 14.9437 52.448 14.336 52.448H12.4701L12.3054 51.7892C12.2111 51.4121 12.204 51.0184 12.2847 50.6381C12.3653 50.2578 12.5315 49.9008 12.7708 49.5944C13.01 49.288 13.3159 49.0401 13.6653 48.8696C14.0147 48.6991 14.3983 48.6104 14.7871 48.6104H16.6275Z" fill="#9E785D"/>
<path d="M20.5952 72.3142C20.3577 72.314 20.1249 72.2477 19.923 72.1228C19.721 71.9978 19.5579 71.8191 19.4517 71.6066C19.3456 71.3942 19.3007 71.1564 19.3221 70.9199C19.3435 70.6833 19.4302 70.4574 19.5727 70.2674C21.0985 68.2344 22.2859 65.9682 23.089 63.5565C23.1409 63.3956 23.2241 63.2466 23.334 63.1181C23.4438 62.9896 23.578 62.8841 23.7288 62.8078C23.8796 62.7314 24.0441 62.6858 24.2127 62.6734C24.3813 62.661 24.5507 62.6821 24.711 62.7356C24.8714 62.789 25.0196 62.8738 25.147 62.9848C25.2745 63.0959 25.3786 63.2312 25.4535 63.3827C25.5283 63.5343 25.5724 63.6992 25.5831 63.8679C25.5938 64.0366 25.571 64.2058 25.516 64.3656C24.626 67.0382 23.3102 69.5495 21.6195 71.8025C21.5003 71.9616 21.3457 72.0907 21.1679 72.1796C20.99 72.2684 20.7939 72.3145 20.5952 72.3142V72.3142Z" fill="#9E785D"/>
<path d="M30.6987 19.1884C31.9013 18.7876 33.0022 18.1295 33.9245 17.26C34.8469 16.3904 35.5686 15.3302 36.0395 14.1532L37.0948 11.5131L30.6987 10.2339V19.1884Z" fill="#834B10"/>
<path d="M37.0947 11.5131L37.2446 11.7378C38.7725 14.0297 40.8426 15.9089 43.2711 17.2086C45.6997 18.5084 48.4116 19.1884 51.1661 19.1884V10.2339L37.0947 11.5131Z" fill="#834B10"/>
<path d="M36.1352 23.346C37.0183 23.346 37.7342 22.6301 37.7342 21.747C37.7342 20.8639 37.0183 20.1479 36.1352 20.1479C35.252 20.1479 34.5361 20.8639 34.5361 21.747C34.5361 22.6301 35.252 23.346 36.1352 23.346Z" fill="#834B10"/>
<path d="M45.7294 23.346C46.6125 23.346 47.3284 22.6301 47.3284 21.747C47.3284 20.8639 46.6125 20.1479 45.7294 20.1479C44.8463 20.1479 44.1304 20.8639 44.1304 21.747C44.1304 22.6301 44.8463 23.346 45.7294 23.346Z" fill="#834B10"/>
<path d="M40.9323 28.1427H38.3739C38.1559 28.1427 37.9414 28.087 37.751 27.9808C37.5605 27.8746 37.4004 27.7215 37.2858 27.536C37.1711 27.3505 37.1058 27.1388 37.096 26.921C37.0862 26.7031 37.1323 26.4864 37.2298 26.2914L39.7882 21.1745C39.8626 21.0229 39.9662 20.8876 40.0931 20.7762C40.22 20.6648 40.3677 20.5797 40.5276 20.5257C40.6876 20.4717 40.8566 20.4499 41.0251 20.4615C41.1935 20.4732 41.358 20.5181 41.509 20.5936C41.66 20.6691 41.7945 20.7737 41.9049 20.9015C42.0152 21.0293 42.0992 21.1776 42.152 21.338C42.2047 21.4984 42.2252 21.6676 42.2122 21.8359C42.1993 22.0043 42.1531 22.1684 42.0764 22.3188L40.4437 25.5843H40.9323C41.2716 25.5843 41.597 25.7191 41.8369 25.959C42.0768 26.1989 42.2116 26.5242 42.2116 26.8635C42.2116 27.2028 42.0768 27.5282 41.8369 27.7681C41.597 28.008 41.2716 28.1427 40.9323 28.1427Z" fill="#834B10"/>
<path d="M48.6078 52.448C48.2686 52.448 47.9432 52.3132 47.7033 52.0733C47.4634 51.8334 47.3286 51.5081 47.3286 51.1688V42.2143C47.3286 41.875 47.4634 41.5496 47.7033 41.3097C47.9432 41.0698 48.2686 40.9351 48.6078 40.9351C48.9471 40.9351 49.2725 41.0698 49.5124 41.3097C49.7523 41.5496 49.887 41.875 49.887 42.2143V51.1688C49.887 51.5081 49.7523 51.8334 49.5124 52.0733C49.2725 52.3132 48.9471 52.448 48.6078 52.448Z" fill="#C3C3C3"/>
<path d="M48.6077 58.8443C50.7271 58.8443 52.4453 57.1261 52.4453 55.0066C52.4453 52.8871 50.7271 51.1689 48.6077 51.1689C46.4882 51.1689 44.77 52.8871 44.77 55.0066C44.77 57.1261 46.4882 58.8443 48.6077 58.8443Z" fill="#E4E4E2"/>
<path d="M48.6078 56.2855C49.3143 56.2855 49.887 55.7128 49.887 55.0063C49.887 54.2998 49.3143 53.7271 48.6078 53.7271C47.9013 53.7271 47.3286 54.2998 47.3286 55.0063C47.3286 55.7128 47.9013 56.2855 48.6078 56.2855Z" fill="#C3C3C3"/>
<path d="M53.7246 75.474H34.5364C33.5186 75.474 32.5425 75.0697 31.8228 74.35C31.1031 73.6303 30.6987 72.6541 30.6987 71.6363C30.6987 70.6185 31.1031 69.6424 31.8228 68.9227C32.5425 68.203 33.5186 67.7987 34.5364 67.7987H35.8156C35.8156 67.1201 36.0851 66.4694 36.5649 65.9896C37.0447 65.5098 37.6955 65.2402 38.374 65.2402H38.5936C39.2721 65.2403 39.9228 65.5098 40.4026 65.9895L42.2117 67.7987H53.7246V75.474Z" fill="#F6BB92"/>
<path d="M11.1734 69.5352C10.9844 69.9538 10.8879 70.4084 10.8907 70.8677C10.8934 71.3271 10.9953 71.7804 11.1893 72.1968C11.3833 72.6132 11.665 72.9827 12.0149 73.2803C12.3649 73.5778 12.775 73.7963 13.2171 73.9208L18.1412 75.312C19.1206 75.5888 20.1699 75.4651 21.0581 74.9683C21.9464 74.4715 22.601 73.6421 22.8778 72.6627C23.1545 71.6833 23.0308 70.6341 22.534 69.7459C22.0372 68.8577 21.2079 68.2032 20.2285 67.9264L18.9973 67.5786C19.0887 67.2553 19.1155 66.9172 19.0762 66.5835C19.0369 66.2498 18.9323 65.9271 18.7683 65.6339C18.6043 65.3406 18.3841 65.0826 18.1204 64.8744C17.8566 64.6663 17.5545 64.5121 17.2312 64.4207L17.0199 64.3611C16.6966 64.2697 16.3585 64.2429 16.0248 64.2822C15.6911 64.3215 15.3684 64.4262 15.0752 64.5902C13.625 65.4014 12.4733 66.6565 11.7894 68.1709L11.1734 69.5352Z" fill="#F6BB92"/>
<path d="M4.50968 34.3481C5.36131 34.3482 6.17805 34.6865 6.78029 35.2887L8.39818 36.9066L10.0159 35.2887C10.6182 34.6866 11.4349 34.3482 12.2865 34.3481C13.0027 34.3481 13.6984 34.5875 14.2629 35.0283C14.8274 35.4691 15.2284 36.0859 15.402 36.7807C15.5985 37.5663 15.5472 38.3934 15.2552 39.1487C14.9632 39.904 14.4448 40.5506 13.771 40.9998L8.39834 44.5816L3.02562 40.9998C2.35184 40.5506 1.83343 39.9041 1.54144 39.1487C1.24946 38.3934 1.19817 37.5663 1.39462 36.7807C1.56828 36.086 1.96917 35.4692 2.53359 35.0285C3.098 34.5877 3.79355 34.3482 4.50968 34.3481V34.3481Z" fill="#DC4D41"/>
<path d="M30.6987 19.188H31.9779V26.8633H30.6987V19.188Z" fill="#EEB58E"/>
<path d="M49.8867 19.188H51.1659V26.8633H49.8867V19.188Z" fill="#EEB58E"/>
<path d="M35.9741 41.0748L40.9324 46.0516L45.839 41.1129C45.5403 41.0631 45.2689 40.909 45.0732 40.6779C44.8775 40.4469 44.77 40.1539 44.77 39.8511V35.8179H37.0947V39.8055C37.0947 40.1173 36.9808 40.4184 36.7745 40.6521C36.5681 40.8858 36.2835 41.0362 35.9741 41.0748V41.0748Z" fill="#F6BB92"/>
<path d="M40.9326 37.0975C38.5577 37.0975 36.28 36.1541 34.6007 34.4748C32.9214 32.7955 31.978 30.5179 31.978 28.143V26.8638H49.8871V28.143C49.8871 30.5179 48.9437 32.7955 47.2644 34.4748C45.5851 36.1541 43.3074 37.0975 40.9326 37.0975V37.0975Z" fill="#85BC94"/>
<path d="M25.582 51.1688C26.2884 51.1688 26.8612 50.5961 26.8612 49.8896C26.8612 49.1831 26.2884 48.6104 25.582 48.6104C24.8755 48.6104 24.3027 49.1831 24.3027 49.8896C24.3027 50.5961 24.8755 51.1688 25.582 51.1688Z" fill="#9E785D"/>
<path d="M36.1352 23.3455C37.0183 23.3455 37.7342 22.6296 37.7342 21.7465C37.7342 20.8634 37.0183 20.1475 36.1352 20.1475C35.252 20.1475 34.5361 20.8634 34.5361 21.7465C34.5361 22.6296 35.252 23.3455 36.1352 23.3455Z" fill="black"/>
<path d="M45.7294 23.3455C46.6125 23.3455 47.3284 22.6296 47.3284 21.7465C47.3284 20.8634 46.6125 20.1475 45.7294 20.1475C44.8463 20.1475 44.1304 20.8634 44.1304 21.7465C44.1304 22.6296 44.8463 23.3455 45.7294 23.3455Z" fill="black"/>
<path d="M48.6078 56.2855C49.3143 56.2855 49.887 55.7128 49.887 55.0063C49.887 54.2998 49.3143 53.7271 48.6078 53.7271C47.9013 53.7271 47.3286 54.2998 47.3286 55.0063C47.3286 55.7128 47.9013 56.2855 48.6078 56.2855Z" fill="black"/>
<path d="M58.319 43.2376L59.4997 40.4412C60.1152 38.9872 60.2817 37.3824 59.9778 35.833C59.6739 34.2837 58.9134 32.8606 57.7942 31.747C57.2941 31.2474 56.8975 30.6541 56.6269 30.0011C56.3564 29.3481 56.2173 28.6482 56.2175 27.9413L56.2831 15.3506C56.2831 11.2794 54.6658 7.37489 51.787 4.49609C48.9082 1.61729 45.0037 0 40.9325 0C36.8612 0 32.9568 1.61729 30.078 4.49609C27.1992 7.37489 25.5819 11.2794 25.5819 15.3506V27.9413C25.5777 29.3678 25.0114 30.7352 24.0057 31.747C22.8895 32.8624 22.131 34.2852 21.8272 35.8337C21.5234 37.3821 21.6879 38.986 22.2999 40.4405L22.8874 41.8378C20.8436 43.169 19.2461 45.0825 18.301 47.3311H14.7869C14.2037 47.3292 13.6278 47.4612 13.1036 47.7169C12.5794 47.9726 12.1209 48.3451 11.7633 48.8058C11.6721 48.9223 11.5877 49.0438 11.5105 49.1699C11.1301 49.7888 10.9349 50.5036 10.9481 51.2299C10.9536 51.5234 10.9923 51.8154 11.0635 52.1001L11.2282 52.7589L11.8581 55.278C12.2023 56.6627 13.0003 57.8921 14.1248 58.7703C15.2493 59.6484 16.6355 60.1247 18.0623 60.1231H19.8032L18.6519 62.8104C18.5535 63.0405 18.4493 63.2699 18.3426 63.4988C18.0998 63.3688 17.8438 63.2651 17.5789 63.1895L17.3674 63.1297C16.8826 62.9913 16.3752 62.9504 15.8745 63.0095C15.3738 63.0685 14.8898 63.2262 14.4504 63.4735C12.764 64.4217 11.4234 65.8826 10.6233 67.6442L10.0072 69.0087C9.65967 69.778 9.53708 70.63 9.65367 71.4661C9.77026 72.3023 10.1213 73.0882 10.666 73.7331C10.4197 74.0784 10.1824 74.428 9.95431 74.7818C9.82998 74.9751 9.76001 75.1983 9.75176 75.4279C9.74352 75.6576 9.79729 75.8852 9.90743 76.0869C10.0176 76.2886 10.18 76.4569 10.3777 76.5741C10.5754 76.6914 10.801 76.7532 11.0308 76.7531H55.0039C56.6996 76.7512 58.3254 76.0767 59.5245 74.8776C60.7236 73.6785 61.3981 72.0527 61.4 70.357V49.995C61.4001 48.7137 61.1252 47.4474 60.5936 46.2816C60.0621 45.1157 59.2864 44.0777 58.319 43.2376V43.2376ZM58.8415 49.995V55.0064H54.1322C53.9936 54.8226 53.8499 54.6426 53.6964 54.47C53.5855 53.4337 53.1616 52.4558 52.4811 51.6664C51.8005 50.8771 50.8957 50.3137 49.887 50.0515V43.0845L52.235 43.476H52.2363L53.497 43.6869C54.9907 43.9348 56.3479 44.7051 57.3267 45.8603C58.3055 47.0156 58.8423 48.4809 58.8415 49.995V49.995ZM51.4568 64.4284C51.4512 64.4353 51.4462 64.4428 51.4408 64.4499C51.4205 64.4758 51.4005 64.5017 51.3821 64.5298C51.3776 64.5367 51.3739 64.5439 51.3695 64.5508C51.3512 64.5791 51.3336 64.6077 51.3176 64.6374C51.3149 64.6424 51.3128 64.6478 51.3101 64.6534C51.2941 64.6854 51.2781 64.7174 51.2639 64.7511C51.2625 64.7545 51.2615 64.7582 51.2601 64.7615C51.2459 64.7965 51.2329 64.8322 51.2217 64.8686C51.2206 64.8725 51.2199 64.8765 51.2188 64.8802C51.2083 64.9161 51.1987 64.9524 51.1913 64.9897C51.1892 64.9998 51.1884 65.0103 51.1865 65.0204C51.1813 65.0513 51.1758 65.0821 51.1726 65.1136C51.1685 65.1558 51.1662 65.1985 51.1662 65.2415V66.5208H42.7416L41.3078 65.0869C41.1898 64.9701 41.0645 64.861 40.9325 64.7604V50.9368C40.9327 49.6456 40.711 48.364 40.2769 47.148C40.5476 47.3112 40.8694 47.368 41.1797 47.3073C41.49 47.2465 41.7666 47.0726 41.9559 46.8194L45.3399 42.3074C45.4344 42.3352 45.5305 42.3575 45.6277 42.3742L47.3286 42.6577V50.0515C46.5267 50.2581 45.7869 50.6563 45.1728 51.2118C44.5587 51.7673 44.0885 52.4636 43.8028 53.2408C43.517 54.018 43.4242 54.853 43.5322 55.674C43.6403 56.495 43.9459 57.2776 44.423 57.9544C44.9001 58.6313 45.5343 59.1822 46.2713 59.56C47.0082 59.9377 47.8258 60.131 48.6538 60.1231C49.4819 60.1153 50.2957 59.9066 51.0253 59.5149C51.7549 59.1233 52.3786 58.5604 52.8428 57.8747C53.2861 58.96 53.3991 60.152 53.1675 61.3012C52.936 62.4505 52.3703 63.5058 51.5414 64.3347C51.5116 64.3648 51.4835 64.396 51.4568 64.4284V64.4284ZM30.6962 20.4675H30.6987V25.5844C30.3628 25.5845 30.03 25.5185 29.7196 25.3901C29.4091 25.2617 29.127 25.0734 28.8893 24.8359C28.4092 24.3563 28.1394 23.7057 28.139 23.0272C28.1387 22.3487 28.4079 21.6978 28.8875 21.2177C29.367 20.7377 30.0176 20.4678 30.6962 20.4675V20.4675ZM53.7247 23.0259C53.7239 23.7042 53.454 24.3545 52.9744 24.8341C52.4948 25.3137 51.8445 25.5835 51.1662 25.5844V20.4675C51.8445 20.4683 52.4948 20.7381 52.9744 21.2177C53.454 21.6973 53.7239 22.3476 53.7247 23.0259V23.0259ZM48.6078 25.5844H40.4438L42.0766 22.3188C42.1533 22.1684 42.1994 22.0043 42.2124 21.836C42.2253 21.6677 42.2049 21.4984 42.1521 21.3381C42.0993 21.1777 42.0154 21.0293 41.905 20.9016C41.7946 20.7738 41.6601 20.6692 41.5091 20.5936C41.3581 20.5181 41.1936 20.4733 41.0252 20.4616C40.8568 20.45 40.6877 20.4718 40.5278 20.5258C40.3678 20.5798 40.2201 20.6649 40.0932 20.7763C39.9663 20.8876 39.8627 21.023 39.7884 21.1746L37.5835 25.5844H33.2572V19.3827C35.0506 18.258 36.4407 16.5931 37.2272 14.6277L37.4327 14.1139C40.2698 17.4779 44.2495 19.6753 48.6078 20.2842V25.5844ZM38.3675 28.1428H38.3731H38.3776H48.6078C48.6078 30.1784 47.7991 32.1306 46.3597 33.57C44.9203 35.0094 42.9681 35.8181 40.9325 35.8181C38.8969 35.8181 36.9446 35.0094 35.5052 33.57C34.0658 32.1306 33.2572 30.1784 33.2572 28.1428H38.3675ZM40.9325 38.3765C41.7955 38.377 42.6552 38.2682 43.4909 38.0527V39.8508C43.4916 40.0427 43.5136 40.2339 43.5566 40.4209L40.9325 43.9199L38.2994 40.409C38.3482 40.2117 38.3733 40.0093 38.374 39.8061V38.0527C39.2098 38.2682 40.0694 38.377 40.9325 38.3765V38.3765ZM38.374 54.7985C38.374 55.477 38.1045 56.1278 37.6247 56.6076C37.1449 57.0874 36.4941 57.3569 35.8156 57.3569C35.1371 57.3569 34.4863 57.0874 34.0065 56.6076C33.5267 56.1278 33.2572 55.477 33.2572 54.7985V49.8895H36.5651L38.374 51.6985V54.7985ZM51.1662 55.0064C51.1662 55.5124 51.0162 56.007 50.735 56.4277C50.4539 56.8485 50.0543 57.1764 49.5869 57.37C49.1194 57.5637 48.6049 57.6144 48.1087 57.5156C47.6124 57.4169 47.1565 57.1732 46.7987 56.8154C46.4409 56.4576 46.1972 56.0018 46.0985 55.5055C45.9998 55.0092 46.0505 54.4948 46.2441 54.0273C46.4377 53.5598 46.7657 53.1602 47.1864 52.8791C47.6071 52.598 48.1018 52.4479 48.6078 52.4479C49.2861 52.4487 49.9364 52.7185 50.416 53.1981C50.8957 53.6777 51.1655 54.3281 51.1662 55.0064V55.0064ZM57.1418 39.4479L56.1334 41.836C55.4273 41.5166 54.6826 41.2905 53.9181 41.1636L52.6568 40.9527H52.6559L46.0493 39.8508V36.9998C47.604 36.1018 48.8951 34.8107 49.7932 33.2561C50.6914 31.7016 51.1648 29.9381 51.1662 28.1428C52.0393 28.1435 52.8978 27.9194 53.6591 27.4921V27.9413C53.6589 28.9843 53.8643 30.0171 54.2636 30.9806C54.6629 31.9441 55.2483 32.8195 55.9862 33.5566C56.7444 34.3113 57.2596 35.2756 57.4655 36.3254C57.6714 37.3752 57.5587 38.4626 57.1418 39.4479V39.4479ZM40.9325 2.55844C44.325 2.55916 47.5783 3.90713 49.9771 6.30597C52.376 8.70481 53.7239 11.9581 53.7247 15.3506V18.5974C52.9477 18.1459 52.0649 17.9083 51.1662 17.909C50.7665 17.909 50.3697 17.8931 49.9845 17.8632C47.6458 17.6916 45.3775 16.9863 43.3537 15.8016C41.33 14.6169 39.6046 12.9843 38.3101 11.0289L38.1598 10.8035C38.0305 10.6095 37.8506 10.4545 37.6397 10.3553C37.4287 10.2562 37.1947 10.2165 36.9628 10.2406C36.731 10.2648 36.5101 10.3518 36.3241 10.4924C36.1381 10.6329 35.9941 10.8216 35.9076 11.038L34.8522 13.678C34.4622 14.6551 33.8691 15.5381 33.1121 16.2686C32.3552 16.9991 31.4516 17.5605 30.4613 17.9154C29.644 17.9525 28.8478 18.1865 28.1403 18.5974V15.3506C28.1442 11.9591 29.4931 8.70759 31.8913 6.30943C34.2895 3.91127 37.541 2.56229 40.9325 2.55844V2.55844ZM25.8148 33.5566C26.5545 32.8209 27.1409 31.9457 27.54 30.9819C27.9392 30.018 28.1432 28.9846 28.1403 27.9413V27.4552C28.9174 27.9065 29.8001 28.1437 30.6987 28.1428C30.7001 29.9381 31.1736 31.7016 32.0718 33.2561C32.9699 34.8107 34.261 36.1017 35.8156 36.9998V39.8062L32.9543 40.1636C32.7122 40.0884 32.4652 40.0176 32.2109 39.9573C29.8468 39.3985 27.3654 39.6203 25.1378 40.5894L24.6581 39.4495C24.2431 38.4636 24.1315 37.3763 24.3375 36.3266C24.5434 35.277 25.0577 34.3125 25.8145 33.5566H25.8148ZM14.7869 49.8895H15.3481V50.1564C15.3478 50.4248 15.2411 50.6821 15.0513 50.8719C14.8615 51.0617 14.6042 51.1684 14.3358 51.1687H13.5093C13.5093 51.1609 13.5093 51.1527 13.5102 51.1454C13.5112 51.0918 13.5155 51.0384 13.5232 50.9855C13.5254 50.9695 13.5275 50.9535 13.5304 50.9375C13.5411 50.8765 13.5564 50.8164 13.5759 50.7576C13.578 50.7514 13.581 50.7454 13.5831 50.7392C13.6025 50.6859 13.6254 50.6339 13.6516 50.5836C13.6591 50.5689 13.667 50.5544 13.6751 50.54C13.7061 50.4841 13.7412 50.4307 13.7801 50.3801C13.8993 50.2268 14.052 50.1029 14.2265 50.0179C14.401 49.9328 14.5927 49.8889 14.7869 49.8895V49.8895ZM24.3027 60.1232C24.4706 60.1232 24.637 60.0902 24.7922 60.0259C24.9474 59.9616 25.0884 59.8674 25.2072 59.7486L27.7657 57.1901C27.8844 57.0714 27.9787 56.9303 28.043 56.7751C28.1072 56.6199 28.1403 56.4536 28.1403 56.2856C28.1403 56.1176 28.1072 55.9512 28.043 55.796C27.9787 55.6408 27.8844 55.4998 27.7657 55.381C27.6469 55.2622 27.5058 55.168 27.3506 55.1037C27.1954 55.0394 27.0291 55.0063 26.8611 55.0063C26.6931 55.0063 26.5267 55.0394 26.3715 55.1037C26.2163 55.168 26.0753 55.2622 25.9565 55.381L23.7729 57.5648H18.0633C17.2072 57.5658 16.3754 57.28 15.7007 56.7531C15.026 56.2261 14.5472 55.4884 14.3407 54.6576L14.1082 53.7271H14.3358C15.2825 53.726 16.1901 53.3495 16.8595 52.6801C17.5289 52.0107 17.9055 51.1031 17.9066 50.1564V49.8895H19.1858C19.4542 49.8895 19.7159 49.805 19.9337 49.648C20.1515 49.491 20.3144 49.2695 20.3993 49.0148C21.1272 46.8286 22.6132 44.975 24.5887 43.7891L25.1513 43.4533C27.0939 42.2874 29.4151 41.9263 31.6201 42.4468C31.898 42.5127 32.1667 42.5902 32.4263 42.6793C32.7936 42.8038 33.1521 42.9528 33.4994 43.1253L33.5674 43.1602C34.1478 43.4501 34.6936 43.8049 35.1942 44.2176C35.2075 44.2286 35.2211 44.2395 35.2348 44.2496C36.2794 45.1157 37.106 46.215 37.6481 47.459C37.4756 47.3754 37.2865 47.3317 37.0948 47.3311H31.978C31.6387 47.3311 31.3133 47.4658 31.0734 47.7057C30.8335 47.9456 30.6987 48.271 30.6987 48.6103V54.7985C30.6962 55.6976 30.931 56.5815 31.3796 57.3608C31.8282 58.14 32.4746 58.787 33.2534 59.2363C34.0323 59.6856 34.916 59.9212 35.8151 59.9195C36.7142 59.9177 37.597 59.6785 38.374 59.2262V63.9609C37.5801 63.9606 36.8056 64.2065 36.1572 64.6647C35.5088 65.1229 35.0184 65.7708 34.7535 66.5193H34.5364C33.638 66.5186 32.7553 66.7547 31.9771 67.2037C31.199 67.6528 30.5528 68.2989 30.1039 69.0771C29.6549 69.8552 29.4188 70.738 29.4196 71.6364C29.4203 72.5348 29.6577 73.4172 30.1079 74.1946H23.6082C24.0775 73.3864 24.3166 72.4651 24.2997 71.5306C24.2828 70.5962 24.0105 69.6841 23.5123 68.8934C24.3211 67.4505 24.9922 65.9346 25.5166 64.3658C25.624 64.0439 25.5991 63.6926 25.4475 63.3891C25.2958 63.0856 25.0298 62.8548 24.708 62.7474C24.3862 62.64 24.0348 62.6649 23.7313 62.8165C23.4278 62.9682 23.197 63.2342 23.0896 63.556C22.6822 64.7752 22.1764 65.9592 21.5774 67.0966C21.259 66.9279 20.9236 66.7933 20.5769 66.6952L20.3678 66.636C20.3453 66.2856 20.2743 65.9399 20.1569 65.609C20.4632 65.0198 20.7475 64.4192 21.0043 63.817L22.5874 60.1232H24.3027ZM12.3394 70.0616L12.9555 68.6972C13.5293 67.4342 14.4905 66.3868 15.6998 65.707C15.8462 65.6247 16.0075 65.5722 16.1744 65.5525C16.3413 65.5328 16.5104 65.5464 16.672 65.5924L16.8833 65.6522C17.2096 65.7447 17.4859 65.963 17.6514 66.259C17.817 66.555 17.8584 66.9046 17.7665 67.231C17.6742 67.5575 17.7154 67.9072 17.881 68.2033C18.0466 68.4994 18.323 68.7176 18.6495 68.8099L19.8807 69.1579C20.5299 69.3456 21.0784 69.7826 21.4065 70.3734C21.7346 70.9642 21.8156 71.6608 21.6319 72.3111C21.4482 72.9615 21.0146 73.5127 20.4259 73.8445C19.8371 74.1762 19.141 74.2616 18.4896 74.0819L13.5646 72.6907C13.2996 72.6161 13.0539 72.4852 12.8443 72.3069C12.6346 72.1286 12.4658 71.9072 12.3496 71.6577C12.2333 71.4082 12.1723 71.1366 12.1707 70.8613C12.1691 70.5861 12.2269 70.3137 12.3402 70.0629L12.3394 70.0616ZM58.8415 70.357C58.8403 71.3744 58.4356 72.3498 57.7162 73.0693C56.9968 73.7887 56.0213 74.1934 55.0039 74.1946H34.5364C33.8579 74.1946 33.2071 73.9251 32.7273 73.4453C32.2475 72.9655 31.978 72.3147 31.978 71.6362C31.978 70.9576 32.2475 70.3069 32.7273 69.8271C33.2071 69.3473 33.8579 69.0778 34.5364 69.0778H35.8156C36.1549 69.0778 36.4803 68.943 36.7202 68.7031C36.9601 68.4632 37.0948 68.1378 37.0948 67.7985C37.0944 67.6304 37.1272 67.4639 37.1914 67.3085C37.2555 67.1531 37.3497 67.012 37.4686 66.8931C37.5875 66.7742 37.7287 66.68 37.884 66.6159C38.0394 66.5517 38.2059 66.5189 38.374 66.5193H38.5931C38.9323 66.5219 39.2571 66.6565 39.4986 66.8946L41.3071 68.7031C41.4259 68.8219 41.5669 68.9161 41.7222 68.9804C41.8774 69.0447 42.0437 69.0778 42.2117 69.0778H52.4454C52.7847 69.0778 53.1101 68.943 53.35 68.7031C53.5899 68.4632 53.7247 68.1378 53.7247 67.7985V65.7457C54.6911 64.6453 55.3577 63.3145 55.6602 61.8816C55.9626 60.4486 55.8908 58.9619 55.4516 57.5648H58.8415V70.357Z" fill="black"/>
<path d="M16.6433 36.4706C16.4505 35.6997 16.0566 34.9938 15.5019 34.425C14.9471 33.8561 14.2513 33.4446 13.4856 33.2325C12.7199 33.0204 11.9115 33.0152 11.1431 33.2176C10.3748 33.4199 9.67383 33.8226 9.11189 34.3843L8.39872 35.0975L7.6854 34.3843C7.12349 33.8225 6.42256 33.4198 5.65418 33.2174C4.88579 33.0151 4.07746 33.0202 3.31169 33.2323C2.54593 33.4444 1.85016 33.8559 1.29541 34.4248C0.740653 34.9936 0.346782 35.6995 0.154003 36.4704C-0.104858 37.512 -0.0361423 38.608 0.350776 39.6091C0.737693 40.6102 1.42398 41.4675 2.31604 42.0643L7.68876 45.6461C7.89889 45.7862 8.14578 45.8609 8.39832 45.8609C8.65087 45.8609 8.89776 45.7862 9.10789 45.6461L14.4806 42.0643C15.3728 41.4676 16.0592 40.6103 16.4462 39.6093C16.8332 38.6082 16.9021 37.5122 16.6433 36.4706V36.4706ZM13.0615 39.9355L8.39792 43.0445L3.73485 39.9355C3.28117 39.6321 2.93213 39.1961 2.73534 38.687C2.53854 38.1779 2.50358 37.6205 2.63521 37.0908C2.7182 36.7591 2.88771 36.4554 3.12644 36.2106C3.36517 35.9659 3.66457 35.7888 3.99409 35.6976C4.3236 35.6063 4.67142 35.6041 5.00206 35.6912C5.3327 35.7783 5.63431 35.9515 5.8761 36.1933L7.49384 37.8112C7.61262 37.93 7.75365 38.0242 7.90885 38.0885C8.06406 38.1528 8.23041 38.1859 8.3984 38.1859C8.5664 38.1859 8.73275 38.1528 8.88795 38.0885C9.04316 38.0242 9.18418 37.93 9.30297 37.8112L10.9207 36.1933C11.1625 35.9515 11.4641 35.7782 11.7948 35.6911C12.1254 35.604 12.4733 35.6062 12.8028 35.6975C13.1324 35.7887 13.4318 35.9658 13.6705 36.2106C13.9092 36.4555 14.0787 36.7592 14.1616 37.091C14.2931 37.6207 14.2581 38.1781 14.0612 38.6871C13.8643 39.1962 13.5152 39.6321 13.0615 39.9355V39.9355Z" fill="black"/>
<path d="M25.582 51.1688C26.2884 51.1688 26.8612 50.5961 26.8612 49.8896C26.8612 49.1831 26.2884 48.6104 25.582 48.6104C24.8755 48.6104 24.3027 49.1831 24.3027 49.8896C24.3027 50.5961 24.8755 51.1688 25.582 51.1688Z" fill="black"/>
</svg>
